<svg xmlns="http://www.w3.org/2000/svg" viewBox="0 0 800 1000">
  <rect width="800" height="1000" fill="#111a31"/>
  <path d="M76 822c119-220 218-305 341-316 141-13 218 81 309 0" fill="none" stroke="#8e9d88" stroke-width="15" stroke-linecap="round"/>
  <path d="M185 817c44-160 114-274 227-382M544 813c-18-93-72-171-145-237" fill="none" stroke="#71836e" stroke-width="10" stroke-linecap="round"/>
  <circle cx="420" cy="352" r="70" fill="#d6b878"/>
  <g fill="#f0dca7">
    <ellipse cx="420" cy="250" rx="25" ry="73"/>
    <ellipse cx="420" cy="454" rx="25" ry="73"/>
    <ellipse cx="318" cy="352" rx="73" ry="25"/>
    <ellipse cx="522" cy="352" rx="73" ry="25"/>
  </g>
  <circle cx="420" cy="352" r="39" fill="#070b1b"/>
  <circle cx="168" cy="180" r="4" fill="#fff4d6"/>
  <circle cx="620" cy="176" r="3" fill="#d6b878"/>
  <circle cx="680" cy="265" r="5" fill="#fff4d6"/>
  <text x="400" y="920" text-anchor="middle" font-family="Georgia, serif" font-size="34" fill="#f7f1e4">Your photograph here</text>
</svg>
